<svg xmlns="http://www.w3.org/2000/svg" viewBox="0 0 256 256" fill="currentColor">
  <title>WA Stay</title>
  <path d="M136.2 56.7L234 185.1L205.8 185.1L136.2 93.7L66.5 185.1L38.3 185.1Z"/>
  <path d="M102.5 164.8C102.5 146.2 117.6 131.1 136.2 131.1C154.7 131.1 169.8 146.2 169.8 164.8Z"/>
  <path d="M8.2 179.3C8.2 180.8 8 182.2 8.3 183.5C8.5 184.8 9.1 186.2 9.7 187.5C10.3 188.7 11 190 11.8 191.1C12.7 192.1 13.8 192.8 14.8 193.7C15.9 194.7 16.7 196 17.8 196.8C18.9 197.5 20.3 197.9 21.7 198.2C22.9 198.5 24.3 198.7 25.6 198.5C27 198.4 28.3 197.7 29.5 197.2C30.7 196.7 32 196.3 33.2 195.6C34.3 195 35.4 194.2 36.3 193.3C37.4 192.4 38.3 191.4 39 190.1C39.8 189 40.5 187.8 41 186.6C41.5 185.2 42 183.8 42.2 182.5C42.5 181.1 42.6 179.6 42.5 178.2C42.5 176.9 42.3 175.5 42 174C41.5 172.7 41.1 171.3 40.5 170.1C39.9 168.8 39.1 167.6 38.3 166.6C37.5 165.5 36.4 164.4 35.4 163.6C34.4 162.8 33.3 162.1 32.1 161.5C30.8 160.9 29.6 160.5 28.4 160.2C27.1 160 25.7 159.8 24.4 159.9C23.2 159.9 21.8 160.1 20.6 160.6C19.4 161.1 18.4 161.9 17.3 162.6C16.2 163.3 15.1 164 14.1 164.9C13.2 165.7 12.4 166.7 11.5 167.7C10.7 168.7 9.5 169.8 8.9 171C8.4 172.2 8.3 173.7 8.1 175.2C8 176.6 8.1 177.9 8.2 179.3Z"/>
  <path d="M24.4 159.2C25.3 158.2 28.3 159 30.1 158.9C32.1 158.8 34 158.7 35.8 158.6C37.8 158.5 39.7 158.5 41.6 158.4C43.5 158.3 45.4 158.3 47.4 158.2C49.3 158.1 51.1 158 53.1 157.8C55 157.7 56.9 157.6 58.8 157.5C60.7 157.4 62.6 157.5 64.6 157.5C66.5 157.5 68.4 157.4 70.3 157.5C72.2 157.5 74.2 157.5 76.1 157.7C78 157.8 80 158.2 81.8 158.4C83.8 158.6 85.7 158.9 87.6 159C89.6 159 91.5 158.9 93.4 159C95.3 159 97.2 159.1 99.1 159.2C101.1 159.4 103 159.6 105 159.7C106.9 159.8 108.7 159.8 110.7 159.9C112.6 159.9 114.5 160 116.5 160.1C118.4 160.3 120.3 160.7 122.2 160.8C124.1 161 126.1 161.2 128 161.2C129.9 161.2 131.9 161 133.7 161C135.6 161 137.6 160.9 139.5 160.9C141.5 160.9 143.4 161 145.2 160.9C147.2 160.9 149.1 160.7 151 160.7C153 160.6 154.9 160.6 156.9 160.6C158.7 160.7 160.6 161 162.6 161.2C164.5 161.3 166.4 161.4 168.4 161.4C170.2 161.4 172.1 161.3 174.1 161.3C176 161.3 178 161.3 179.9 161.4C181.7 161.4 183.7 161.5 185.6 161.5C187.5 161.5 189.5 161.3 191.4 161.3C193.4 161.3 195.2 161.3 197.1 161.5C199.1 161.7 201 162 202.8 162.3C204.8 162.5 206.7 162.8 208.5 163.1C210.5 163.3 212.4 163.5 214.4 163.8C216.2 164 218.1 164.4 220.1 164.7C221.9 164.9 224.9 164.8 225.8 165C226.7 165.3 226.7 166.1 225.7 166.3C224.8 166.5 221.9 166.2 220 166.1C218 166.1 216.1 166.1 214.3 166.2C212.3 166.3 210.4 166.5 208.4 166.6C206.5 166.7 204.6 166.8 202.7 166.9C200.8 166.9 198.9 166.8 196.9 166.8C195 166.7 193.1 166.6 191.2 166.6C189.3 166.6 187.3 166.6 185.5 166.5C183.6 166.5 181.6 166.4 179.7 166.3C177.8 166.3 175.9 166.1 174 166.1C172 166.1 170.1 166.1 168.2 166.1C166.3 166.1 164.4 166.1 162.5 166.1C160.5 166.1 158.6 166.1 156.8 166.1C154.8 166.1 152.9 166.1 150.9 166.1C149 166.1 147.2 166.1 145.2 166.1C143.3 166.1 141.4 166 139.4 165.9C137.6 165.9 135.6 165.7 133.7 165.7C131.8 165.6 129.8 165.6 128 165.5C126.1 165.5 124.1 165.5 122.2 165.4C120.4 165.4 118.4 165.3 116.5 165.2C114.5 165.2 112.6 165.1 110.8 165.1C108.8 165 106.9 165 105 164.9C103 164.9 101.1 164.7 99.2 164.6C97.3 164.4 95.4 164.2 93.4 164.1C91.5 164 89.7 164 87.7 164C85.8 163.9 83.9 163.9 81.9 163.8C80.1 163.8 78.1 163.7 76.2 163.7C74.3 163.7 72.3 163.7 70.5 163.8C68.6 163.8 66.6 163.9 64.7 163.9C62.9 163.9 60.9 163.9 59 163.9C57 163.9 55.2 163.9 53.3 163.9C51.3 164 49.4 164.1 47.6 164.1C45.6 164.2 43.7 164.3 41.7 164.3C39.9 164.4 38 164.6 36 164.7C34.1 164.7 32.3 164.8 30.3 164.9C28.4 165 25.6 166.1 24.6 165.2C23.6 164.2 23.5 160.3 24.4 159.2Z"/>
  <path d="M24.5 162.8C25.4 161.4 28.4 162.6 30.3 162.5C32.2 162.4 34.1 162.4 36 162.3C38 162.2 39.9 162.1 41.7 162.1C43.7 162 45.6 161.9 47.6 161.9C49.5 161.8 51.3 161.8 53.3 161.8C55.2 161.7 57.1 161.6 59.1 161.6C61 161.5 62.9 161.5 64.8 161.5C66.7 161.5 68.7 161.5 70.6 161.6C72.5 161.6 74.5 161.7 76.4 161.7C78.3 161.7 80.2 161.7 82.1 161.7C84.1 161.7 86 161.7 87.9 161.8C89.9 161.8 91.8 161.9 93.7 162C95.7 162 97.5 162 99.5 162.1C101.4 162.1 103.3 162.2 105.3 162.3C107.2 162.4 109.1 162.6 111.1 162.7C113 162.8 114.9 163 116.8 163.1C118.7 163.2 120.7 163.3 122.6 163.3C124.5 163.4 126.5 163.5 128.4 163.6C130.3 163.7 132.3 163.8 134.1 163.8C136.1 163.9 138 163.9 139.9 163.9C141.9 163.9 143.8 163.9 145.7 164C147.7 164.1 149.6 164.2 151.4 164.3C153.4 164.3 155.3 164.4 157.3 164.4C159.2 164.4 161.1 164.4 163.1 164.4C165 164.4 166.9 164.6 168.8 164.6C170.7 164.6 172.7 164.6 174.6 164.4C176.5 164.4 178.5 164.3 180.4 164.3C182.3 164.3 184.3 164.2 186.2 164.2C188.1 164.3 190 164.3 191.9 164.4C193.9 164.6 195.8 164.7 197.7 164.8C199.7 165 201.5 165.2 203.4 165.4C205.4 165.7 207.3 166 209.2 166.3C211.1 166.6 213 166.9 215 167.2C216.8 167.5 218.7 167.7 220.7 167.9C222.6 168.1 225.5 168 226.4 168.4C227.3 168.7 227.3 169.8 226.3 170C225.4 170.3 222.5 169.9 220.6 169.9C218.6 169.9 216.7 170.1 214.8 170.2C212.8 170.4 210.9 170.6 209.1 170.8C207.1 170.9 205.2 171.1 203.2 171.2C201.3 171.4 199.4 171.6 197.4 171.7C195.5 171.8 193.6 171.8 191.7 171.8C189.8 171.8 187.8 171.6 185.9 171.5C184 171.4 182.1 171.3 180.2 171.3C178.3 171.2 176.3 171.2 174.4 171.2C172.6 171.1 170.6 171.1 168.7 171C166.7 171 164.8 170.9 162.9 170.9C161 170.8 159.1 170.9 157.2 170.9C155.2 170.9 153.3 170.9 151.3 170.8C149.5 170.7 147.6 170.6 145.6 170.5C143.7 170.5 141.8 170.4 139.9 170.3C138 170.3 136.1 170.3 134.1 170.2C132.2 170.2 130.2 170.1 128.4 170.1C126.5 170 124.5 170 122.6 170C120.7 170 118.7 170 116.9 170.1C114.9 170.1 113 170.1 111.1 170.1C109.1 170.1 107.2 170 105.4 169.9C103.4 169.9 101.5 169.9 99.6 169.8C97.6 169.8 95.7 169.8 93.8 169.8C91.9 169.8 90 169.6 88 169.6C86.1 169.6 84.3 169.5 82.3 169.6C80.4 169.6 78.5 169.8 76.5 169.8C74.6 169.8 72.7 169.9 70.8 169.9C68.9 169.9 66.9 169.8 65 169.8C63.2 169.8 61.2 169.8 59.3 169.8C57.3 169.8 55.4 169.9 53.5 169.9C51.6 169.9 49.7 169.9 47.8 170C45.8 170 43.9 170.1 42.1 170.2C40.1 170.2 38.2 170.3 36.2 170.4C34.4 170.5 32.5 170.6 30.5 170.6C28.6 170.7 25.8 172.2 24.8 170.9C23.8 169.5 23.6 164.1 24.5 162.8Z"/>
  <path d="M24.7 168.5C25.6 167.1 28.6 168.3 30.5 168.2C32.5 168.2 34.4 168.1 36.3 168C38.3 167.9 40.3 167.9 42.3 167.8C44.2 167.7 46.1 167.7 48.1 167.6C50 167.5 51.9 167.5 53.9 167.4C55.8 167.3 57.8 167.3 59.7 167.3C61.7 167.2 63.7 167.3 65.6 167.3C67.5 167.3 69.5 167.3 71.4 167.2C73.4 167.2 75.3 167.1 77.3 167.1C79.3 167.1 81.2 167.1 83.1 167.1C85.1 167.1 87 167.2 89 167.2C91 167.2 92.9 167.2 94.9 167.3C96.8 167.3 98.7 167.4 100.7 167.5C102.6 167.6 104.7 167.8 106.6 167.8C108.5 167.9 110.5 168 112.4 168C114.3 168.1 116.3 168.1 118.3 168.1C120.3 168.2 122.2 168.3 124.1 168.3C126.1 168.4 128 168.4 129.9 168.4C131.9 168.4 133.9 168.4 135.9 168.5C137.8 168.5 139.7 168.6 141.7 168.6C143.6 168.7 145.5 168.8 147.6 168.9C149.5 168.9 151.4 168.9 153.4 168.9C155.3 168.9 157.3 168.9 159.2 168.9C161.1 168.9 163.2 168.9 165.1 168.9C167 168.9 169 168.9 170.9 168.9C172.9 168.9 174.8 168.8 176.8 168.9C178.8 168.9 180.7 169 182.6 169.1C184.6 169.1 186.5 169.2 188.5 169.3C190.4 169.4 192.4 169.4 194.4 169.4C196.3 169.5 198.2 169.5 200.2 169.6C202.1 169.8 204.1 169.9 206 170C208 170 210 170 211.9 170.1C213.8 170.2 215.8 170.3 217.7 170.5C219.7 170.7 221.6 171.2 223.5 171.6C225.5 171.9 227.4 172.4 229.3 172.8C231.3 173.1 233.2 173.4 235.2 173.7C237.1 174 239.9 174 241 174.4C241.9 174.8 241.8 176 240.9 176.2C239.8 176.5 237 176.1 234.9 176.2C233 176.2 231.1 176.4 229.1 176.6C227.2 176.7 225.3 176.9 223.2 177C221.3 177.1 219.4 177.2 217.4 177.2C215.5 177.2 213.5 177.1 211.6 177.1C209.7 177 207.7 177 205.8 177C203.9 176.9 201.8 176.8 199.9 176.8C197.9 176.7 196 176.6 194.1 176.5C192.1 176.4 190.2 176.4 188.3 176.3C186.3 176.2 184.4 176.2 182.4 176.1C180.5 176 178.6 175.8 176.6 175.7C174.7 175.7 172.8 175.6 170.8 175.6C168.8 175.6 166.8 175.6 164.9 175.6C163 175.6 161 175.6 159.1 175.6C157.2 175.5 155.2 175.5 153.3 175.5C151.3 175.5 149.4 175.6 147.5 175.6C145.5 175.6 143.5 175.5 141.6 175.5C139.6 175.4 137.7 175.3 135.7 175.3C133.8 175.2 131.9 175.3 129.9 175.3C128 175.3 126.1 175.3 124.1 175.3C122.2 175.3 120.3 175.3 118.3 175.3C116.4 175.3 114.3 175.3 112.4 175.3C110.5 175.3 108.5 175.4 106.6 175.3C104.7 175.3 102.7 175.3 100.8 175.2C98.8 175.2 96.9 175.1 95 174.9C93 174.9 91.1 174.9 89.2 174.9C87.1 175.1 85.2 175.1 83.2 175.1C81.3 175.1 79.4 175.1 77.4 175.1C75.5 175.2 73.6 175.3 71.6 175.3C69.7 175.4 67.7 175.5 65.8 175.6C63.9 175.6 61.9 175.6 60 175.6C58 175.6 56 175.7 54.1 175.7C52.1 175.8 50.2 175.9 48.3 175.9C46.3 176 44.4 176.1 42.5 176.1C40.5 176.2 38.6 176.3 36.6 176.3C34.7 176.4 32.8 176.5 30.8 176.5C28.9 176.6 25.9 178 25 176.7C24 175.4 23.8 170 24.7 168.5Z"/>
  <path d="M24.9 174.3C25.8 173.1 28.8 174.2 30.7 174.1C32.7 174 34.6 174 36.5 173.9C38.5 173.8 40.4 173.8 42.4 173.7C44.3 173.7 46.3 173.6 48.3 173.5C50.2 173.5 52.1 173.5 54.1 173.4C56 173.4 58 173.4 59.9 173.4C61.8 173.3 63.8 173.2 65.7 173.1C67.6 173.1 69.7 173 71.6 173C73.6 172.9 75.5 172.9 77.4 172.9C79.4 172.8 81.3 172.7 83.2 172.7C85.2 172.6 87.1 172.6 89.1 172.6C91.1 172.6 93 172.7 95 172.8C96.9 172.8 98.8 172.9 100.8 172.9C102.7 172.9 104.7 172.9 106.6 172.9C108.5 173 110.6 173 112.5 173C114.4 173.1 116.4 173.1 118.3 173.1C120.3 173.1 122.2 173.1 124.1 173.1C126.1 173.1 128 173.1 130 173.2C132 173.2 133.9 173.4 135.9 173.4C137.8 173.5 139.7 173.6 141.7 173.6C143.6 173.6 145.5 173.6 147.5 173.6C149.4 173.7 151.4 173.7 153.4 173.7C155.3 173.8 157.3 173.8 159.2 173.7C161.1 173.7 163.1 173.6 165 173.6C166.9 173.6 168.9 173.7 170.9 173.7C172.9 173.7 174.8 173.9 176.7 173.9C178.7 174 180.6 174 182.5 174C184.5 174.1 186.4 174.1 188.4 174.2C190.3 174.3 192.3 174.4 194.3 174.6C196.2 174.8 198.1 175.1 200.1 175.3C202 175.5 204 175.7 205.9 176C207.8 176.3 209.8 176.6 211.7 176.9C213.6 177.2 215.6 177.6 217.5 177.8C219.5 178 222.3 178.1 223.3 178.3C224.2 178.5 224.2 178.8 223.2 178.9C222.3 179 219.4 178.8 217.4 178.9C215.5 179 213.5 179.1 211.6 179.2C209.7 179.4 207.6 179.5 205.7 179.7C203.8 179.8 201.8 180 199.9 180.3C197.9 180.4 196 180.6 194 180.6C192 180.7 190.1 180.5 188.2 180.5C186.2 180.4 184.3 180.1 182.3 180C180.4 179.9 178.5 179.9 176.5 179.8C174.6 179.8 172.7 179.7 170.7 179.6C168.8 179.5 166.8 179.5 164.9 179.4C163 179.4 161 179.4 159.1 179.4C157.2 179.3 155.2 179.3 153.3 179.3C151.3 179.2 149.4 179.1 147.5 179C145.5 178.9 143.6 178.9 141.7 178.9C139.6 178.8 137.7 178.9 135.7 178.9C133.8 178.8 131.9 178.8 129.9 178.8C128 178.8 126.1 178.8 124.1 178.9C122.2 178.9 120.3 179.1 118.3 179.1C116.4 179.2 114.4 179.3 112.5 179.3C110.6 179.3 108.6 179.3 106.7 179.3C104.8 179.3 102.8 179.4 100.9 179.4C98.9 179.4 97 179.5 95.1 179.5C93.1 179.6 91.2 179.6 89.3 179.6C87.2 179.6 85.3 179.7 83.3 179.8C81.4 179.8 79.5 180 77.5 180.1C75.6 180.1 73.7 180.3 71.7 180.3C69.8 180.3 67.8 180.3 65.9 180.3C64 180.3 62 180.3 60.1 180.4C58.2 180.4 56.2 180.5 54.3 180.5C52.4 180.5 50.4 180.6 48.5 180.6C46.5 180.7 44.6 180.8 42.6 180.8C40.6 180.9 38.7 181 36.8 181C34.8 181.1 32.9 181.2 30.9 181.2C29 181.3 26.1 182.5 25.1 181.4C24.1 180.3 24 175.6 24.9 174.3Z"/>
  <path d="M25 179C25.9 177.3 28.9 178.9 30.9 178.8C32.9 178.7 34.8 178.7 36.8 178.6C38.7 178.6 40.6 178.5 42.6 178.5C44.5 178.4 46.5 178.3 48.5 178.3C50.4 178.2 52.4 178.2 54.3 178.2C56.2 178.1 58.2 178.1 60.1 178.1C62.1 178 64.1 177.9 66 177.8C67.9 177.8 69.9 177.7 71.8 177.6C73.8 177.6 75.7 177.5 77.6 177.5C79.6 177.4 81.6 177.3 83.5 177.2C85.5 177.1 87.4 177.1 89.4 177.1C91.3 177 93.2 177.1 95.2 177.1C97.2 177.2 99.1 177.2 101.1 177.2C103 177.2 105 177.1 106.9 177.1C108.8 177.1 110.8 177.2 112.7 177.2C114.7 177.2 116.7 177.2 118.6 177.2C120.6 177.2 122.5 177.1 124.4 177.1C126.4 177.1 128.3 177.1 130.3 177.1C132.3 177.2 134.2 177.3 136.2 177.3C138.1 177.4 140 177.4 142 177.4C143.9 177.4 145.8 177.4 147.9 177.5C149.8 177.5 151.8 177.5 153.7 177.6C155.6 177.6 157.6 177.6 159.5 177.6C161.4 177.6 163.5 177.5 165.4 177.5C167.4 177.5 169.3 177.5 171.2 177.6C173.2 177.6 175.1 177.7 177 177.8C179 177.9 181 177.9 183 178C184.9 178 186.8 178.1 188.8 178.2C190.7 178.2 192.6 178.4 194.6 178.4C196.5 178.5 198.6 178.5 200.5 178.6C202.4 178.6 204.4 178.6 206.3 178.7C208.2 178.8 210.2 179 212.1 179.3C214 179.5 216 179.9 217.9 180.3C219.9 180.6 221.8 180.9 223.7 181.2C225.7 181.6 227.6 182 229.5 182.4C231.5 182.8 233.4 183.2 235.4 183.4C237.3 183.7 239.2 183.9 241.2 184C243.2 184.2 246.1 184.1 247.1 184.3C248 184.5 248 185.2 247 185.5C246.1 185.6 243.1 185.3 241.2 185.5C239.2 185.5 237.2 185.7 235.3 185.9C233.3 186 231.4 186.1 229.4 186.3C227.4 186.4 225.5 186.6 223.5 186.7C221.6 186.9 219.7 187.1 217.6 187.2C215.7 187.4 213.7 187.6 211.8 187.6C209.9 187.7 207.9 187.7 206 187.7C204 187.7 202 187.6 200.1 187.5C198.1 187.5 196.2 187.5 194.3 187.4C192.3 187.3 190.4 187.1 188.5 187C186.5 186.9 184.6 186.7 182.6 186.6C180.7 186.5 178.8 186.4 176.8 186.3C174.9 186.2 173 186.2 171 186.1C169.1 186 167.2 185.9 165.2 185.8C163.3 185.8 161.3 185.8 159.4 185.7C157.5 185.7 155.5 185.7 153.6 185.6C151.6 185.6 149.6 185.5 147.7 185.3C145.7 185.2 143.8 185.2 141.9 185.2C139.9 185.1 138 185.2 136.1 185.2C134.1 185.2 132.2 185.2 130.2 185.3C128.3 185.3 126.4 185.3 124.4 185.5C122.5 185.6 120.6 185.8 118.6 185.9C116.7 186 114.7 186.1 112.8 186.2C110.9 186.2 108.9 186.2 107 186.3C105.1 186.4 103.1 186.4 101.2 186.5C99.2 186.6 97.3 186.7 95.4 186.8C93.4 186.9 91.5 186.9 89.6 187C87.5 187.1 85.6 187.2 83.6 187.3C81.7 187.4 79.8 187.6 77.8 187.7C75.9 187.8 74 187.9 72 187.9C70.1 188 68.2 188 66.2 188C64.3 188 62.3 188.1 60.4 188.2C58.5 188.2 56.5 188.3 54.6 188.3C52.7 188.3 50.7 188.4 48.7 188.4C46.7 188.5 44.8 188.6 42.9 188.6C40.9 188.7 39 188.8 37.1 188.8C35.1 188.9 33.2 188.9 31.2 188.9C29.3 189 26.4 190.8 25.3 189.1C24.3 187.4 24.1 180.7 25 179Z"/>
  <path d="M25.3 186.8C26.2 185.3 29.1 186.7 31 186.6C33 186.6 34.9 186.5 36.9 186.5C38.8 186.4 40.7 186.4 42.7 186.3C44.6 186.3 46.5 186.3 48.5 186.2C50.3 186.2 52.2 186.1 54.2 186C56.1 185.9 58.1 185.8 60 185.7C61.9 185.6 63.9 185.6 65.7 185.5C67.6 185.3 69.6 185.2 71.5 185.1C73.5 185.1 75.4 184.9 77.3 184.9C79.3 184.8 81.1 184.8 83 184.8C85 184.8 86.9 184.8 88.8 184.8C90.8 184.8 92.7 184.7 94.6 184.6C96.5 184.5 98.4 184.4 100.4 184.3C102.3 184.3 104.2 184.2 106.2 184.2C108 184.1 110 184 111.9 184C113.8 183.9 115.8 183.8 117.7 183.8C119.6 183.8 121.5 183.8 123.4 183.8C125.3 183.8 127.3 183.8 129.2 183.8C131.2 183.8 133.1 183.7 134.9 183.7C136.9 183.6 138.8 183.6 140.7 183.5C142.7 183.5 144.6 183.5 146.6 183.5C148.4 183.5 150.3 183.5 152.3 183.4C154.2 183.4 156.1 183.4 158.1 183.4C160 183.5 161.8 183.6 163.8 183.7C165.7 183.8 167.7 183.9 169.6 184C171.5 184.1 173.5 184.1 175.3 184.3C177.2 184.4 179.2 184.7 181.1 184.9C183.1 185.2 185 185.6 186.8 185.9C188.8 186.1 190.7 186.4 192.6 186.6C194.5 186.9 196.4 187.2 198.3 187.5C200.3 187.8 202.2 188.1 204.1 188.4C206 188.6 208.8 188.7 209.9 188.9C210.8 189.2 210.8 189.9 209.8 190.1C208.8 190.3 206 190.1 204.1 190.1C202.1 190.2 200.2 190.2 198.2 190.3C196.3 190.3 194.4 190.3 192.4 190.3C190.5 190.4 188.7 190.5 186.7 190.5C184.8 190.7 182.9 190.9 180.9 190.9C179 191 177 191 175.2 191C173.3 191 171.3 190.9 169.4 190.9C167.5 190.8 165.6 190.8 163.7 190.7C161.7 190.7 159.8 190.5 157.9 190.4C156 190.4 154.1 190.2 152.2 190.2C150.2 190.1 148.3 190.1 146.5 190.1C144.5 190.1 142.6 190.1 140.6 190.2C138.7 190.2 136.9 190.2 134.9 190.3C133 190.3 131.1 190.4 129.2 190.5C127.3 190.7 125.3 190.9 123.4 191C121.5 191.1 119.6 191.2 117.7 191.3C115.8 191.3 113.8 191.3 111.9 191.4C110.1 191.5 108.1 191.6 106.2 191.7C104.2 191.9 102.4 192 100.5 192.1C98.5 192.2 96.6 192.3 94.7 192.4C92.8 192.5 90.9 192.7 89 192.8C87 193 85.2 193.2 83.2 193.3C81.3 193.4 79.4 193.5 77.4 193.5C75.6 193.6 73.7 193.6 71.7 193.7C69.8 193.7 67.8 193.8 65.9 193.9C64.1 194 62.1 194.1 60.2 194.1C58.3 194.2 56.3 194.2 54.4 194.3C52.6 194.4 50.6 194.5 48.7 194.6C46.7 194.7 44.8 194.7 42.9 194.8C40.9 194.8 39.1 194.9 37.2 194.9C35.2 194.9 33.3 195 31.3 195C29.4 195 26.6 196.5 25.5 195.1C24.5 193.7 24.4 188.1 25.3 186.8Z"/>
  <path d="M25.5 192.8C26.5 191.8 29.4 192.7 31.3 192.7C33.3 192.6 35.2 192.6 37.2 192.6C39.1 192.5 41 192.5 43 192.4C44.9 192.4 46.8 192.4 48.8 192.3C50.7 192.3 52.7 192.2 54.6 192.1C56.5 192.1 58.5 191.9 60.4 191.8C62.3 191.7 64.3 191.6 66.2 191.5C68.2 191.4 70.1 191.3 72 191.2C74 191.1 75.9 191 77.8 190.9C79.8 190.8 81.7 190.7 83.6 190.7C85.6 190.5 87.5 190.5 89.5 190.5C91.4 190.4 93.3 190.3 95.3 190.2C97.2 190.1 99.1 189.9 101.1 189.8C103 189.7 104.9 189.6 106.8 189.6C108.7 189.5 110.7 189.4 112.6 189.3C114.5 189.2 116.5 189 118.4 189C120.4 188.9 122.3 188.9 124.2 188.9C126.2 188.8 128.1 188.9 130 188.8C132 188.8 133.9 188.7 135.9 188.7C137.8 188.6 139.7 188.6 141.7 188.5C143.6 188.5 145.5 188.5 147.5 188.5C149.4 188.5 151.3 188.4 153.3 188.4C155.2 188.4 157.2 188.3 159.1 188.4C161 188.4 162.9 188.5 164.8 188.6C166.7 188.7 168.7 188.9 170.6 189C172.6 189 174.5 189.1 176.4 189.2C178.4 189.3 180.3 189.4 182.2 189.5C184.2 189.6 186.1 189.7 188.1 189.8C190 189.9 191.9 189.9 193.9 190C195.8 190.1 197.7 190.1 199.7 190.3C201.6 190.4 203.5 190.7 205.5 190.9C207.4 191.1 209.4 191.3 211.3 191.5C213.2 191.7 215.2 191.9 217.1 192.1C219 192.3 221 192.6 222.8 192.8C224.8 193 226.7 193.2 228.6 193.3C230.6 193.5 232.5 193.6 234.5 193.7C236.5 193.8 239.3 193.8 240.4 194C241.3 194.1 241.3 194.5 240.3 194.6C239.3 194.7 236.4 194.4 234.4 194.5C232.5 194.5 230.6 194.8 228.6 195C226.7 195.1 224.7 195.2 222.7 195.2C220.8 195.2 218.8 195 216.9 195C215 195 213 195.1 211.1 195.1C209.2 195.1 207.2 195.3 205.3 195.3C203.3 195.2 201.4 195.1 199.5 195C197.5 195 195.6 195 193.7 195C191.7 195.1 189.8 195.3 187.8 195.3C185.9 195.3 184 195.1 182 194.9C180.2 194.8 178.3 194.4 176.3 194.3C174.4 194.1 172.5 194.1 170.5 194C168.6 193.8 166.6 193.7 164.7 193.6C162.8 193.5 160.9 193.2 159 193.1C157.1 193.1 155.1 193.1 153.2 193.2C151.2 193.2 149.3 193.4 147.4 193.4C145.4 193.4 143.5 193.2 141.6 193.1C139.6 193 137.7 192.8 135.9 192.8C133.9 192.7 132 192.8 130 192.9C128.1 192.9 126.2 192.8 124.2 192.9C122.3 192.9 120.4 192.8 118.4 193C116.5 193.1 114.5 193.5 112.7 193.7C110.8 194 108.8 194.4 106.9 194.6C105 194.8 103 194.8 101.1 195C99.1 195.1 97.2 195.3 95.3 195.4C93.3 195.6 91.5 196 89.6 196.1C87.6 196.2 85.7 196.2 83.8 196.3C81.8 196.4 79.9 196.4 77.9 196.6C76 196.8 74.1 197.2 72.1 197.4C70.3 197.6 68.4 197.8 66.4 197.9C64.5 198 62.5 197.9 60.6 197.9C58.7 198 56.7 198 54.8 198C52.9 198 50.9 198.1 49 198.1C47 198.1 45.1 198 43.2 198C41.2 198 39.3 198.1 37.4 198.1C35.4 198.2 33.5 198.3 31.4 198.3C29.5 198.3 26.7 199.3 25.6 198.3C24.6 197.4 24.5 193.7 25.5 192.8Z"/>
</svg>
