<svg xmlns="http://www.w3.org/2000/svg" viewBox="0 0 492 100">
  <title>WA Stay</title>
  <path fill="#E8B858" d="M36.2 73.5C36.2 34 68.2 2 107.7 2C147.3 2 179.3 34 179.3 73.5Z"/>
  <path fill="#15181D" d="M107.7 15.6L133.3 73.5L82.1 73.5Z"/>
  <path fill="#3A74B8" d="M2.5 82.3C2.4 83.4 2.3 84.6 2.6 85.7C2.9 86.9 3.6 87.8 4.1 88.8C4.6 89.8 5.1 90.9 5.8 91.7C6.5 92.6 7.3 93.2 8.2 93.9C9 94.6 9.8 95.5 10.7 96C11.7 96.5 12.9 96.6 13.9 96.6C14.9 96.7 15.9 96.5 16.9 96.4C18 96.4 19 96.6 20 96.3C21 96.1 22 95.6 22.9 95.1C23.8 94.6 24.7 94 25.5 93.2C26.2 92.6 26.9 91.7 27.6 90.9C28.2 89.9 28.7 88.9 29.1 87.9C29.5 86.9 29.8 85.8 30.1 84.7C30.2 83.6 30.3 82.5 30.2 81.4C30.2 80.2 30.1 79.1 29.8 78C29.5 77 29.1 75.9 28.7 74.9C28.2 73.9 27.6 73 26.9 72.1C26.3 71.3 25.5 70.5 24.7 69.8C23.8 69.1 23 68.6 22.1 68.1C21.1 67.6 20.1 67.3 19.1 67.1C18.1 66.9 16.9 66.7 16 66.9C15 66.9 14 67.4 13 67.8C12.1 68.2 11.2 68.6 10.3 69.1C9.4 69.4 8.3 69.7 7.4 70.3C6.6 70.9 5.8 71.7 5.1 72.6C4.4 73.5 3.7 74.4 3.3 75.4C2.9 76.5 3 77.7 2.8 78.9C2.6 80 2.5 81.1 2.5 82.3Z"/>
  <path fill="#3A74B8" d="M16 66.3C16.7 65.6 19.1 66.2 20.6 66.1C22.1 66.1 23.7 66 25.3 66C26.8 65.9 28.4 65.8 29.9 65.7C31.4 65.7 33 65.7 34.6 65.6C36.1 65.6 37.6 65.5 39.2 65.5C40.8 65.4 42.3 65.2 43.8 65.1C45.4 65.1 47 65.1 48.5 65.1C50.1 65.1 51.6 65.3 53.2 65.4C54.7 65.4 56.3 65.4 57.9 65.4C59.4 65.4 60.9 65.2 62.5 65.2C64.1 65.2 65.6 65.3 67.2 65.3C68.8 65.4 70.3 65.5 71.8 65.5C73.4 65.5 75 65.4 76.5 65.5C78.1 65.6 79.7 65.7 81.2 65.9C82.7 66.1 84.4 66.4 85.9 66.7C87.4 66.9 89 67 90.6 67.1C92.1 67.2 93.7 67.2 95.2 67.3C96.8 67.4 98.3 67.5 99.9 67.6C101.5 67.7 103 67.8 104.6 67.8C106.1 67.8 107.7 67.7 109.3 67.7C110.8 67.7 112.4 67.7 113.9 67.9C115.5 68 117 68.2 118.6 68.3C120.1 68.4 121.8 68.4 123.3 68.4C124.8 68.4 126.4 68.2 127.9 68.2C129.5 68.2 131.1 68.3 132.6 68.2C134.1 68.2 135.8 68.1 137.3 68C138.8 67.9 140.4 67.6 142 67.5C143.5 67.4 145.1 67.4 146.6 67.5C148.3 67.5 149.8 67.8 151.3 67.9C152.9 68 154.4 68 155.9 68C157.5 68 159.1 68 160.6 68.1C162.1 68.2 163.8 68.4 165.3 68.6C166.8 68.6 168.4 68.7 169.9 68.8C171.5 68.9 173 68.9 174.6 69.1C176.1 69.2 177.6 69.6 179.3 69.8C180.8 70.2 182.3 70.6 183.8 70.9C185.4 71.1 187.8 71.3 188.4 71.4C189.3 71.6 189.3 71.6 188.4 71.6C187.8 71.7 185.3 71.6 183.8 71.6C182.3 71.6 180.8 71.7 179.1 71.7C177.5 71.8 176 71.9 174.5 72C172.9 72 171.3 72.1 169.8 72.2C168.3 72.3 166.6 72.3 165.1 72.4C163.6 72.4 162 72.3 160.4 72.3C158.9 72.3 157.4 72.4 155.8 72.4C154.3 72.4 152.8 72.4 151.3 72.4C149.5 72.4 148 72.3 146.5 72.2C144.9 72.2 143.4 72.1 141.8 72C140.3 72 138.8 72 137.3 72C135.6 72 134.1 72 132.5 71.9C131 71.9 129.4 71.8 127.8 71.8C126.3 71.8 124.8 71.8 123.3 71.8C121.6 71.8 120.1 71.8 118.6 71.7C116.9 71.7 115.4 71.6 113.9 71.5C112.4 71.4 110.7 71.4 109.2 71.3C107.7 71.3 106.1 71.2 104.5 71.2C103 71.1 101.5 71 99.9 71C98.3 70.9 96.8 70.9 95.2 70.8C93.7 70.8 92.1 70.8 90.6 70.8C89 70.8 87.5 70.8 85.9 70.8C84.4 70.8 82.8 70.7 81.3 70.6C79.7 70.5 78.1 70.5 76.6 70.4C75 70.4 73.5 70.4 71.9 70.3C70.4 70.3 68.8 70.3 67.2 70.2C65.7 70.2 64.2 70.1 62.6 70.1C61 70.1 59.5 70.1 58 70.1C56.4 70.2 54.8 70.2 53.3 70.2C51.8 70.2 50.2 70.2 48.6 70.1C47.1 70.1 45.5 70.1 44 70.1C42.4 70.1 40.9 70.2 39.3 70.2C37.8 70.2 36.3 70.2 34.6 70.3C33.1 70.3 31.6 70.3 30.1 70.3C28.5 70.4 26.9 70.5 25.4 70.6C23.8 70.7 22.3 70.7 20.8 70.8C19.2 70.9 16.9 71.8 16.1 71C15.3 70.3 15.2 67.2 16 66.3Z"/>
  <path fill="#3A74B8" d="M16.1 69.1C16.9 68.2 19.2 69 20.8 68.9C22.4 68.8 23.9 68.8 25.5 68.7C27.1 68.6 28.7 68.6 30.3 68.5C31.8 68.4 33.5 68.3 35 68.3C36.6 68.2 38.2 68.2 39.8 68.2C41.4 68.2 42.9 68.1 44.5 68.1C46.1 68.1 47.7 68.1 49.3 68.2C50.9 68.2 52.4 68.3 54.1 68.3C55.7 68.4 57.2 68.4 58.8 68.4C60.4 68.4 62 68.3 63.6 68.3C65.2 68.4 66.7 68.4 68.4 68.5C70 68.5 71.5 68.6 73.1 68.6C74.7 68.7 76.3 68.7 77.9 68.8C79.5 68.9 81 68.9 82.6 69C84.3 69.1 85.8 69.1 87.4 69.2C89 69.3 90.6 69.3 92.2 69.3C93.8 69.3 95.3 69.3 96.9 69.3C98.6 69.4 100.1 69.4 101.7 69.5C103.3 69.6 104.9 69.7 106.5 69.7C108.1 69.7 109.6 69.7 111.2 69.7C112.9 69.8 114.4 69.9 116 70C117.6 70.1 119.3 70.2 120.8 70.3C122.3 70.3 123.9 70.3 125.5 70.3C127.1 70.3 128.8 70.3 130.3 70.3C131.8 70.3 133.5 70.3 135.1 70.4C136.6 70.4 138.3 70.4 139.8 70.5C141.4 70.5 143 70.5 144.6 70.5C146.1 70.6 147.8 70.6 149.4 70.7C150.9 70.9 152.5 71 154.1 71.1C155.8 71.3 157.3 71.4 158.8 71.6C160.4 71.8 162 72 163.6 72.1C165.1 72.4 166.8 72.6 168.3 72.7C169.9 72.9 172.3 72.7 173 73C173.8 73.2 173.8 74 173 74.3C172.3 74.4 169.8 74.2 168.3 74.2C166.6 74.3 165 74.3 163.5 74.3C161.9 74.4 160.3 74.6 158.8 74.7C157.1 74.9 155.5 74.9 154 75C152.4 75.1 150.8 75.1 149.3 75.1C147.6 75.1 146.1 75 144.4 75C142.8 75.1 141.3 75.1 139.8 75.2C138.1 75.2 136.5 75.2 134.9 75.1C133.4 75.1 131.8 75 130.3 75C128.6 75 127 75 125.5 75C123.8 75 122.3 74.9 120.8 74.9C119.1 74.9 117.5 74.7 115.9 74.7C114.4 74.7 112.8 74.7 111.2 74.7C109.6 74.6 108 74.7 106.4 74.6C104.9 74.6 103.2 74.5 101.7 74.5C100.1 74.4 98.5 74.3 96.9 74.3C95.3 74.3 93.8 74.3 92.2 74.2C90.6 74.2 89 74.1 87.4 74C85.9 73.9 84.3 73.7 82.6 73.7C81.1 73.7 79.5 73.7 77.9 73.7C76.4 73.7 74.7 73.7 73.2 73.7C71.6 73.7 70 73.7 68.4 73.7C66.8 73.7 65.3 73.7 63.7 73.7C62.1 73.7 60.5 73.7 58.9 73.7C57.4 73.7 55.8 73.7 54.1 73.7C52.6 73.7 51 73.7 49.5 73.7C47.8 73.7 46.2 73.8 44.7 73.9C43.1 73.9 41.5 74 39.9 74C38.4 74.1 36.8 74.1 35.2 74.2C33.6 74.2 32 74.3 30.5 74.3C28.9 74.3 27.3 74.4 25.7 74.4C24.1 74.5 22.6 74.5 20.9 74.6C19.4 74.7 17 75.7 16.3 74.8C15.4 73.9 15.3 70.2 16.1 69.1Z"/>
  <path fill="#3A74B8" d="M16.2 73C16.9 71.5 19.3 72.8 20.9 72.7C22.5 72.6 24.1 72.6 25.6 72.6C27.2 72.5 28.9 72.4 30.4 72.4C32 72.3 33.5 72.2 35.2 72.2C36.8 72.1 38.3 72 39.9 72C41.5 71.9 43.1 71.9 44.7 71.9C46.2 71.8 47.8 71.8 49.5 71.8C51 71.8 52.6 71.7 54.1 71.8C55.8 71.8 57.4 71.8 58.9 71.9C60.5 71.9 62.1 72 63.7 72C65.3 72.1 66.9 72.1 68.4 72.1C70.1 72.1 71.7 72.1 73.2 72.1C74.8 72.1 76.4 72.2 78 72.3C79.6 72.3 81.2 72.4 82.7 72.4C84.4 72.5 85.9 72.5 87.5 72.5C89.1 72.6 90.6 72.6 92.3 72.7C93.9 72.8 95.4 72.9 97 72.9C98.6 73 100.2 73 101.8 73C103.4 73 104.9 72.9 106.6 72.9C108.2 73 109.7 73 111.3 73C112.9 73 114.5 73 116.1 73C117.6 73 119.3 73 120.9 73.1C122.4 73.1 124 73.1 125.6 73.2C127.3 73.3 128.8 73.4 130.4 73.4C131.9 73.4 133.5 73.4 135.3 73.4C136.8 73.5 138.3 73.4 139.9 73.5C141.5 73.6 143.1 73.7 144.6 73.9C146.3 74.1 147.8 74.3 149.4 74.5C151 74.7 152.5 74.9 154.1 75.3C155.8 75.5 157.3 75.9 158.8 76.2C160.4 76.5 162 76.7 163.6 76.9C165.1 77.1 167.5 77 168.3 77.2C169.1 77.6 169 78.7 168.3 78.9C167.4 79.2 165 78.8 163.5 78.8C161.9 78.8 160.4 78.9 158.8 78.9C157.1 79.1 155.6 79.3 154 79.5C152.4 79.7 150.8 79.9 149.3 80C147.6 80.2 146.1 80.3 144.4 80.4C142.8 80.5 141.3 80.5 139.8 80.5C138.1 80.5 136.5 80.5 134.9 80.4C133.4 80.3 131.8 80.2 130.3 80.1C128.6 80.1 127.1 80 125.5 80C123.9 80 122.3 80.1 120.8 80.1C119.3 80.1 117.5 80.1 116 80.1C114.4 80.1 112.9 80.1 111.2 80.1C109.6 80.1 108.1 80.1 106.5 80.1C104.9 80.1 103.3 80.1 101.8 80.1C100.2 80 98.6 80 97 80C95.4 79.9 93.9 79.9 92.3 79.9C90.7 79.9 89.1 80 87.6 80C86 80 84.4 80 82.8 80C81.2 80 79.7 80 78.1 80C76.5 80 74.9 80 73.3 80C71.8 80 70.1 80 68.6 80C67 80 65.5 80 63.8 80C62.2 80 60.7 80 59.1 80C57.5 80 55.9 80.1 54.4 80.1C52.8 80.2 51.2 80.2 49.6 80.3C48 80.4 46.5 80.4 44.9 80.5C43.3 80.6 41.7 80.6 40.2 80.7C38.6 80.8 37 80.8 35.4 80.8C33.8 80.9 32.3 80.9 30.6 81C29.1 81 27.5 81.1 26 81.1C24.4 81.1 22.7 81.2 21.2 81.2C19.6 81.3 17.3 82.8 16.4 81.4C15.6 80 15.4 74.4 16.2 73Z"/>
  <path fill="#3A74B8" d="M16.4 79.5C17.1 78.7 19.5 79.4 21 79.4C22.6 79.4 24.2 79.3 25.7 79.2C27.3 79.2 28.9 79.1 30.4 79.1C32 79 33.5 79 35.1 78.9C36.6 78.9 38.2 78.9 39.8 78.8C41.3 78.7 42.9 78.6 44.4 78.5C46 78.5 47.6 78.4 49.1 78.4C50.6 78.3 52.3 78.3 53.8 78.3C55.3 78.3 56.9 78.3 58.5 78.3C60 78.3 61.6 78.3 63.2 78.3C64.7 78.3 66.3 78.4 67.8 78.4C69.4 78.4 70.9 78.3 72.5 78.3C74.1 78.3 75.6 78.3 77.2 78.3C78.7 78.3 80.3 78.3 81.9 78.3C83.4 78.3 84.9 78.3 86.6 78.3C88.1 78.3 89.6 78.3 91.2 78.3C92.8 78.3 94.3 78.4 95.9 78.4C97.5 78.5 99 78.6 100.6 78.6C102.1 78.6 103.7 78.5 105.3 78.5C106.8 78.5 108.4 78.5 110 78.5C111.5 78.5 113 78.5 114.6 78.5C116.3 78.5 117.8 78.5 119.3 78.5C120.9 78.4 122.4 78.4 123.9 78.4C125.5 78.5 127.1 78.6 128.6 78.7C130.3 78.7 131.8 78.8 133.3 78.9C134.9 78.9 136.4 78.9 138 78.9C139.6 78.9 141.1 79 142.6 79C144.3 79.1 145.8 79.2 147.3 79.2C148.9 79.3 150.5 79.3 152 79.4C153.5 79.4 155.3 79.5 156.8 79.7C158.3 80 159.8 80.3 161.4 80.6C162.9 80.8 164.4 81.1 166 81.3C167.6 81.6 169.1 81.7 170.6 81.9C172.3 82.1 174.6 82.1 175.3 82.3C176.1 82.5 176.1 83 175.3 83.1C174.5 83.2 172.3 83 170.6 83C169 82.9 167.5 83 165.9 83C164.4 83.1 162.8 83.3 161.3 83.4C159.8 83.4 158.1 83.6 156.5 83.6C155 83.7 153.5 83.7 151.8 83.7C150.3 83.6 148.8 83.5 147.3 83.5C145.6 83.4 144.1 83.4 142.6 83.4C140.9 83.3 139.4 83.2 137.9 83.1C136.4 82.9 134.8 82.9 133.3 82.8C131.8 82.8 130.1 82.8 128.5 82.7C127 82.7 125.5 82.7 123.8 82.7C122.3 82.7 120.8 82.6 119.3 82.6C117.6 82.6 116.1 82.6 114.6 82.7C113 82.7 111.4 82.8 109.9 82.8C108.4 82.8 106.7 82.7 105.2 82.7C103.7 82.6 102.1 82.6 100.5 82.6C99 82.6 97.5 82.7 95.9 82.7C94.3 82.7 92.8 82.8 91.2 82.8C89.6 82.8 88.1 82.8 86.6 82.9C85 82.9 83.4 82.9 81.9 83C80.4 83 78.8 83.1 77.2 83.1C75.7 83.2 74.1 83.1 72.6 83.1C71 83.1 69.5 83.1 67.9 83.1C66.3 83.1 64.8 83.2 63.2 83.2C61.7 83.2 60.1 83.2 58.6 83.3C57 83.3 55.5 83.3 53.9 83.4C52.4 83.4 50.8 83.5 49.2 83.6C47.7 83.7 46.1 83.7 44.6 83.8C43 83.9 41.5 83.9 39.9 83.9C38.4 84 36.8 84 35.2 84C33.7 84 32.1 84.1 30.6 84.2C29 84.2 27.5 84.3 25.9 84.3C24.4 84.4 22.8 84.4 21.2 84.5C19.7 84.6 17.4 85.4 16.5 84.6C15.8 83.8 15.7 80.4 16.4 79.5Z"/>
  <path fill="#3A74B8" d="M16.5 82.8C17.3 81.8 19.7 82.7 21.2 82.6C22.7 82.5 24.4 82.5 25.9 82.4C27.5 82.4 29 82.3 30.6 82.3C32.2 82.3 33.7 82.2 35.2 82.2C36.9 82.1 38.4 82.1 40 82C41.5 82 43.1 81.9 44.7 81.9C46.2 81.8 47.8 81.7 49.4 81.7C50.9 81.6 52.5 81.6 54.1 81.6C55.7 81.5 57.2 81.6 58.7 81.5C60.4 81.5 61.9 81.5 63.5 81.5C65 81.5 66.6 81.5 68.2 81.5C69.7 81.5 71.3 81.5 72.9 81.5C74.4 81.5 76 81.4 77.5 81.4C79.1 81.3 80.7 81.2 82.2 81.2C83.8 81.1 85.4 81.1 86.9 81.1C88.5 81.1 90.1 81.1 91.7 81.1C93.2 81.1 94.7 81.1 96.4 81.1C97.9 81 99.4 81.1 101 81.1C102.6 81.1 104.2 81.1 105.7 81.1C107.2 81.1 108.9 81.1 110.4 81.1C112 81.1 113.5 81 115.1 81C116.8 81 118.3 81.1 119.8 81.1C121.4 81.1 122.9 81.1 124.5 81.1C126.1 81.1 127.8 81.1 129.3 81.2C130.8 81.2 132.4 81.4 133.9 81.5C135.4 81.6 137 81.7 138.6 81.7C140.3 81.8 141.8 81.8 143.3 81.8C144.9 81.9 146.4 81.9 148 82C149.5 82.1 151.1 82.2 152.8 82.3C154.3 82.3 155.8 82.3 157.4 82.4C158.9 82.5 160.5 82.6 162.1 82.7C163.6 82.9 165.3 83.1 166.8 83.4C168.3 83.5 169.9 83.8 171.4 84C172.9 84.2 174.6 84.3 176.1 84.5C177.6 84.6 179.3 84.7 180.8 84.8C182.3 85 184.8 84.8 185.5 85.1C186.3 85.4 186.3 86.3 185.4 86.5C184.6 86.7 182.3 86.4 180.8 86.4C179.3 86.4 177.5 86.5 176 86.6C174.4 86.7 172.9 86.7 171.3 86.7C169.8 86.7 168.3 86.7 166.6 86.8C165 86.8 163.4 86.9 161.9 86.9C160.4 86.9 158.8 86.9 157.3 86.8C155.8 86.8 154.1 86.6 152.5 86.6C150.9 86.5 149.4 86.5 147.8 86.5C146.3 86.5 144.8 86.5 143.3 86.5C141.5 86.4 140 86.3 138.5 86.3C136.9 86.3 135.3 86.2 133.8 86.1C132.3 86 130.6 86 129.1 86C127.5 85.9 126 85.8 124.4 85.7C122.8 85.7 121.3 85.7 119.8 85.6C118.1 85.6 116.6 85.6 115.1 85.7C113.5 85.7 111.9 85.7 110.4 85.7C108.8 85.7 107.2 85.6 105.7 85.6C104.1 85.6 102.6 85.6 101 85.6C99.4 85.6 97.9 85.6 96.4 85.6C94.7 85.6 93.2 85.6 91.7 85.6C90.1 85.6 88.5 85.6 87 85.6C85.4 85.7 83.8 85.7 82.3 85.8C80.7 85.9 79.2 86.1 77.6 86.2C76 86.2 74.5 86.3 72.9 86.3C71.3 86.3 69.8 86.4 68.3 86.5C66.6 86.6 65.1 86.7 63.6 86.8C62 86.9 60.4 86.9 58.9 86.9C57.3 86.9 55.8 86.9 54.2 87C52.6 87.1 51.1 87.2 49.5 87.3C47.9 87.4 46.4 87.4 44.9 87.5C43.2 87.6 41.7 87.6 40.2 87.6C38.6 87.7 37 87.7 35.4 87.8C33.9 87.8 32.4 87.8 30.7 87.9C29.2 87.9 27.7 87.9 26.1 88C24.5 88 22.9 88 21.4 88C19.8 88.1 17.5 89.1 16.7 88.1C15.8 87.3 15.8 83.7 16.5 82.8Z"/>
  <path fill="#3A74B8" d="M16.6 86.3C17.4 84.9 19.8 86.3 21.3 86.2C22.9 86.2 24.4 86.1 26.1 86.1C27.6 86 29.2 85.9 30.7 85.9C32.4 85.8 33.9 85.7 35.4 85.7C37 85.7 38.6 85.7 40.2 85.6C41.7 85.6 43.3 85.5 44.9 85.5C46.4 85.5 48 85.4 49.5 85.4C51.2 85.3 52.7 85.3 54.2 85.3C55.8 85.3 57.4 85.3 59 85.2C60.5 85.2 62.1 85.1 63.7 85C65.2 84.9 66.8 84.8 68.4 84.8C70 84.7 71.5 84.7 73 84.6C74.6 84.6 76.2 84.6 77.8 84.6C79.3 84.5 80.9 84.4 82.5 84.4C84 84.4 85.6 84.4 87.2 84.4C88.7 84.3 90.3 84.3 91.8 84.2C93.5 84.2 95 84 96.5 84C98.1 84 99.7 83.9 101.3 83.9C102.8 83.8 104.4 83.9 106 83.9C107.5 83.9 109.1 83.8 110.6 83.8C112.3 83.8 113.8 83.9 115.3 83.9C116.9 84 118.5 84 120.1 84.1C121.6 84.1 123.3 84.2 124.8 84.2C126.3 84.3 127.9 84.2 129.5 84.3C131 84.3 132.6 84.4 134.1 84.5C135.8 84.5 137.3 84.6 138.8 84.6C140.4 84.7 142 84.7 143.6 84.8C145.1 84.9 146.6 85 148.3 85.1C149.8 85.1 151.4 85.3 152.9 85.4C154.5 85.5 156.1 85.6 157.6 85.6C159.3 85.7 160.8 85.7 162.4 85.7C163.9 85.7 165.5 85.8 167.1 85.8C168.6 85.9 170.3 86 171.8 86C173.4 86 174.9 86 176.5 86.1C178.1 86.2 179.6 86.2 181.3 86.3C182.8 86.6 184.3 87 185.9 87.4C187.4 87.8 188.9 88.2 190.5 88.6C192.1 89 193.6 89.3 195.3 89.6C196.8 89.7 199.1 89.7 199.8 90C200.8 90.3 200.6 90.8 199.8 90.9C199.1 91.1 196.8 91 195.1 91.2C193.5 91.4 191.9 91.6 190.3 91.9C188.8 92.2 187.3 92.7 185.5 93C184 93.3 182.4 93.7 180.9 93.7C179.3 93.8 177.8 93.7 176.1 93.6C174.6 93.5 173 93.4 171.4 93.3C169.9 93.3 168.4 93.2 166.8 93.1C165.3 93 163.8 92.8 162.1 92.7C160.5 92.6 159 92.5 157.4 92.4C155.8 92.3 154.3 92.2 152.8 92.2C151.3 92.1 149.5 92 148 92C146.5 91.9 144.9 91.8 143.3 91.7C141.8 91.5 140.3 91.5 138.6 91.4C137.1 91.4 135.5 91.3 134 91.2C132.4 91.2 130.8 91 129.3 90.9C127.8 90.9 126.3 90.9 124.6 90.8C123.1 90.8 121.5 90.9 119.9 90.9C118.4 90.9 116.8 90.9 115.3 90.9C113.8 90.9 112.2 90.9 110.6 90.9C109 90.9 107.5 91 105.9 91.1C104.4 91.1 102.8 91.2 101.2 91.2C99.7 91.2 98.1 91.2 96.5 91.2C95 91.3 93.5 91.3 91.8 91.4C90.3 91.4 88.8 91.5 87.2 91.6C85.6 91.8 84.1 91.8 82.5 91.9C80.9 92 79.4 92 77.8 92.1C76.3 92.2 74.7 92.4 73.2 92.5C71.6 92.6 70.1 92.6 68.5 92.7C66.9 92.7 65.4 92.7 63.8 92.8C62.2 92.9 60.7 93 59.2 93.1C57.5 93.1 56 93.2 54.5 93.3C52.9 93.5 51.3 93.5 49.8 93.6C48.2 93.7 46.6 93.8 45.1 93.9C43.5 94 42 94.1 40.4 94.2C38.8 94.3 37.3 94.3 35.7 94.3C34.1 94.3 32.6 94.3 31 94.4C29.5 94.4 27.8 94.5 26.3 94.5C24.7 94.5 23.2 94.6 21.6 94.6C20 94.6 17.7 96 16.9 94.7C16.1 93.2 15.8 87.7 16.6 86.3Z"/>
  <path fill="#3A74B8" d="M16.9 92.8C17.6 92 20 92.7 21.5 92.7C23.2 92.7 24.7 92.6 26.3 92.6C27.8 92.6 29.5 92.6 31 92.6C32.6 92.5 34.1 92.5 35.7 92.4C37.3 92.4 38.8 92.4 40.4 92.3C42 92.2 43.6 92.1 45.1 92C46.7 91.9 48.3 91.8 49.8 91.7C51.4 91.6 52.9 91.6 54.6 91.5C56.1 91.4 57.6 91.3 59.2 91.2C60.8 91.1 62.4 91 63.9 91C65.5 90.9 67.1 91 68.6 90.9C70.2 90.9 71.8 90.9 73.4 90.8C74.9 90.7 76.4 90.5 78.1 90.4C79.6 90.3 81.2 90.3 82.7 90.3C84.3 90.2 85.9 90.1 87.4 90C89 89.9 90.6 89.8 92.1 89.7C93.7 89.7 95.2 89.7 96.9 89.7C98.4 89.7 99.9 89.7 101.5 89.7C103.1 89.7 104.7 89.6 106.2 89.6C107.8 89.5 109.4 89.4 110.9 89.4C112.5 89.4 114.1 89.4 115.6 89.4C117.3 89.4 118.8 89.3 120.4 89.3C121.9 89.3 123.5 89.2 125 89.3C126.6 89.3 128.3 89.4 129.8 89.5C131.3 89.6 132.9 89.7 134.4 89.7C136 89.8 137.5 89.8 139.3 89.9C140.8 90 142.3 90.1 143.8 90.2C145.4 90.3 147 90.3 148.5 90.4C150.1 90.5 151.8 90.5 153.3 90.6C154.8 90.7 156.4 90.8 158 90.9C159.5 91 161 91.3 162.6 91.5C164.3 91.8 165.8 92 167.3 92.3C168.9 92.6 170.5 92.7 172 92.9C173.5 93.1 175.3 93.3 176.8 93.5C178.3 93.7 180.6 93.7 181.4 93.9C182.3 94 182.1 94.3 181.4 94.4C180.6 94.4 178.3 94.1 176.8 94.1C175.1 94.1 173.5 94.3 171.9 94.4C170.4 94.5 168.8 94.6 167.3 94.6C165.6 94.6 164.1 94.5 162.5 94.4C160.9 94.4 159.3 94.4 157.8 94.3C156.3 94.3 154.6 94.3 153.1 94.2C151.5 94.1 150 93.7 148.4 93.7C146.8 93.5 145.3 93.4 143.8 93.4C142.1 93.4 140.6 93.7 139 93.7C137.5 93.7 135.9 93.7 134.3 93.7C132.8 93.7 131.3 93.6 129.6 93.6C128.1 93.5 126.5 93.6 124.9 93.6C123.4 93.5 121.8 93.5 120.3 93.4C118.8 93.3 117.1 93.1 115.6 93.1C114.1 93 112.4 93 110.9 93.1C109.3 93.1 107.8 93.4 106.2 93.4C104.6 93.5 103.1 93.5 101.5 93.6C99.9 93.6 98.4 93.5 96.9 93.6C95.2 93.6 93.7 93.7 92.1 93.8C90.6 93.8 89 93.8 87.4 93.7C85.9 93.7 84.4 93.6 82.7 93.6C81.2 93.6 79.7 93.7 78.1 93.9C76.5 94 75 94.3 73.4 94.5C71.8 94.7 70.2 94.8 68.7 94.9C67.2 95 65.5 95.2 64 95.4C62.5 95.5 60.9 95.8 59.3 96C57.8 96 56.2 96 54.6 96.1C53.1 96.1 51.5 96 50 96.1C48.4 96.2 46.8 96.5 45.3 96.6C43.7 96.7 42.1 96.9 40.5 97C39 97.1 37.5 97.1 35.8 97.1C34.3 97.1 32.7 97.1 31.2 97.2C29.5 97.2 28 97.2 26.4 97.2C24.9 97.2 23.2 97.2 21.7 97.2C20.1 97.2 17.8 98 16.9 97.2C16.2 96.6 16.1 93.6 16.9 92.8Z"/>
  <path fill="#15181D" d="M263.7 35.9L265.8 36.6L256.3 69Q256 69.5 255.9 70Q255.8 70.5 255.8 71.2L255.8 72.9Q255.8 73.4 255.7 73.7Q255.3 74 254.8 74L246.4 74Q245.9 74 245.7 73.7Q245.3 73.4 245.3 72.9L245.3 71.2Q245.3 70.7 245.3 70.3Q245.3 70 245 69.3L234 30Q233.8 29.3 233.5 28.9Q233.3 28.6 232.7 28.4L230.8 27.9Q230.4 27.7 230.3 27.5Q230 27.2 230 26.9Q230 26.5 230.4 26.2Q230.8 26 231.3 26L247.5 26Q248.2 26 248.4 26.3Q248.8 26.5 248.8 26.9Q248.8 27.6 247.9 27.8L245.3 28.3Q244.7 28.4 244.5 28.9Q244.3 29.4 244.7 30.4L255.3 69.3L253 71.4L263.7 35.9ZM285 27Q285 26.5 285.3 26.3Q285.7 26 286.3 26L296.8 26Q297.4 26 297.8 26.3Q298 26.5 298 27Q298 27.3 297.8 27.5Q297.7 27.7 297.2 27.9L295.9 28.4Q294.8 28.9 293.8 29.9Q292.9 31 292.4 32.9L282.9 69Q282.8 69.7 282.7 70.2Q282.5 70.6 282.5 71.2L282.5 72.9Q282.5 73.4 282.3 73.7Q282 74 281.5 74L272.9 74Q272.4 74 272.3 73.7Q271.9 73.4 271.9 72.9L271.9 71.2Q271.9 70.7 271.8 70.3Q271.8 69.9 271.5 69.2L260.9 30Q260.7 29.1 260.4 28.8Q260.2 28.5 259.7 28.3L257.9 27.9Q257.4 27.7 257.3 27.5Q257 27.3 257 27Q257 26.5 257.4 26.3Q257.8 26 258.3 26L274.3 26Q274.8 26 275.2 26.3Q275.4 26.5 275.4 27Q275.4 27.3 275.3 27.5Q275 27.8 274.5 27.9L272.2 28.3Q271.5 28.5 271.3 28.9Q271.2 29.4 271.4 30.4L281.8 69.4L279.8 71.3L290 32.7Q290.4 31 289.9 29.9Q289.3 28.8 287.4 28.3L285.8 27.9Q285.4 27.7 285.3 27.5Q285 27.3 285 27ZM305.7 55L324.7 55L324.8 57.2L305.4 57.2L305.7 55ZM308.7 73Q308.7 73.5 308.3 73.7Q308 74 307.4 74L296.5 74Q295.9 74 295.7 73.7Q295.3 73.5 295.3 73Q295.3 72.7 295.5 72.5Q295.8 72.2 296.2 72L297.3 71.6Q298.4 71.2 299.3 70.2Q300 69.2 300.8 66.9L311.8 31.5Q312.3 30 311.9 29.3Q311.7 28.6 310.4 28.2Q309.8 27.9 309.5 27.6Q309.3 27.3 309.3 27Q309.3 26.5 309.5 26.2Q309.8 26 310.5 26L325.8 26Q326.3 26 326.7 26.2Q327 26.5 327 26.9Q327 27.3 326.8 27.6Q326.4 27.9 325.8 28.1Q324.9 28.3 324.8 28.8Q324.5 29.2 324.8 30.2L337.5 69.1Q337.9 70.4 338.5 71Q339 71.6 340 71.9Q340.8 72.1 340.9 72.4Q341.2 72.6 341.2 73Q341.2 73.5 340.8 73.7Q340.5 74 339.8 74L324.8 74Q324 74 323.8 73.7Q323.4 73.5 323.4 73Q323.4 72.6 323.8 72.4Q323.9 72.2 324.4 72L326.3 71.7Q327.2 71.4 327.3 70.9Q327.3 70.4 326.9 69.2L314.3 29.9L315.3 28.7L303.5 66.7Q303 68.1 303.3 69Q303.4 70 304.2 70.6Q304.9 71.2 306.3 71.7L307.8 72.1Q308.3 72.2 308.4 72.4Q308.7 72.6 308.7 73ZM376.9 74.9Q373.9 74.9 371.9 74.1Q369.9 73.3 368.7 72.6Q367.4 71.8 366.9 71.8Q366.4 71.8 365.9 72.3Q365.5 72.8 365 73.4Q364.5 74 364 74.5Q363.5 75 363 75Q362.5 75 362.3 74.7Q361.8 74.4 361.8 73.7L359.3 60.9Q359.2 60.4 359.3 60.1Q359.5 59.7 359.9 59.6Q360.4 59.4 360.8 59.6Q361.3 59.8 361.5 60.3Q363.9 65.1 366.3 67.8Q368.8 70.5 371.3 71.6Q373.8 72.7 376.3 72.7Q379.8 72.7 381.9 70.8Q384 68.8 384 65.4Q384 63.2 383.2 61.4Q382.2 59.6 379.7 58Q377.2 56.4 372.5 54.9Q367.3 53.1 364 50.8Q360.9 48.6 359.4 45.7Q358 42.8 358 39.1Q358 34.9 360 31.8Q362 28.7 365.7 26.9Q369.3 25.2 374 25.2Q376.9 25.2 378.9 25.9Q380.9 26.5 382.2 27.2Q383.3 27.9 384 27.9Q384.7 27.9 385.3 27.2Q385.9 26.5 386.5 25.8Q387.3 25.1 387.9 25.1Q388.3 25.1 388.8 25.4Q389 25.7 389.3 26.5L392.8 39.3Q392.8 39.9 392.7 40.3Q392.5 40.8 392 41Q391.5 41.1 391.2 40.9Q390.8 40.7 390.5 40.2Q387.9 35.3 385.3 32.5Q382.8 29.7 380.2 28.6Q377.5 27.4 374.8 27.4Q371.3 27.4 369.2 29.6Q366.9 31.7 366.9 35.3Q366.9 37.5 367.8 39.4Q368.8 41.2 371.3 42.9Q373.7 44.6 378 46.2Q383.5 48.1 386.8 50.4Q389.8 52.6 391.3 55.3Q392.7 58.1 392.7 61.5Q392.7 65.2 390.8 68.2Q388.9 71.3 385.4 73.1Q381.9 74.9 376.9 74.9ZM399.5 44.9L397.3 44.4Q396.8 44.2 396.5 44Q396.3 43.8 396.3 43.5Q396.3 43.1 396.7 42.8Q396.9 42.6 397.3 42.6L399.8 42.6Q400.4 42.6 400.8 42.4Q401.2 42.2 401.5 41.7L406.7 35.9Q407 35.3 407.5 35Q407.9 34.8 408.4 34.8Q408.8 34.8 409.2 35.1Q409.4 35.4 409.4 36L409.4 65.1Q409.4 67.6 410.4 68.9Q411.4 70.2 413.2 70.2Q414.2 70.2 414.8 69.9Q415.4 69.5 415.9 69Q416.3 68.4 416.8 67.9Q417.2 67.3 417.7 66.8Q417.9 66.7 418.2 66.9Q418.3 67.1 418.3 67.6Q418.1 69.7 416.9 71.3Q415.8 72.9 413.9 73.8Q412.1 74.7 409.4 74.7Q405.3 74.7 402.9 72.6Q400.5 70.6 400.5 66.3L400.5 46.4Q400.5 45.7 400.3 45.4Q400.2 45.1 399.5 44.9ZM406.3 44.8L406.3 42.6L417.2 42.6Q417.7 42.6 417.9 42.8Q418.3 43 418.3 43.4Q418.3 44 417.7 44.4Q417.1 44.8 415.8 44.8L406.3 44.8ZM440.9 70.2L440.9 69.6L440.4 69.7L440.4 48.5Q440.4 46.1 439.3 44.8Q438.2 43.5 436.2 43.5Q434.1 43.5 432.9 44.4Q431.8 45.4 431.8 46.7L431.8 49.6Q431.8 51.5 430.6 52.6Q429.3 53.8 427.1 53.8Q425.3 53.8 424.3 52.9Q423.3 51.9 423.3 50.2Q423.3 48.2 424.9 46.3Q426.6 44.4 429.8 43.1Q432.8 41.9 437.6 41.9Q443.6 41.9 446.4 44.3Q449.4 46.8 449.4 51.1L449.4 68.9Q449.4 70 449.8 70.5Q450.3 71 450.9 71Q451.6 71 452.1 70.7Q452.4 70.3 452.7 69.7Q452.8 69.5 452.8 69.4Q453.1 69.3 453.3 69.3Q453.4 69.3 453.7 69.5Q453.8 69.7 453.8 70Q453.8 70.9 453.1 72Q452.3 73.1 450.8 73.9Q449.3 74.7 447.1 74.7Q444.2 74.7 442.6 73.5Q440.9 72.3 440.9 70.2ZM421.8 67.1Q421.8 63 425.3 60.6Q428.8 58.1 435.4 58.1Q437.7 58.1 439.3 58.5Q440.8 58.9 442.1 59.5L441.6 60.8Q440.3 60.3 439.2 60Q437.9 59.6 436.6 59.6Q433.8 59.6 432.3 61.2Q430.8 62.8 430.8 65.6Q430.8 68.4 432.2 69.9Q433.6 71.3 435.7 71.3Q437.3 71.3 438.8 70.5Q440.4 69.8 441.4 68.4L442.1 69.6Q440.3 72.1 437.4 73.4Q434.6 74.7 431.2 74.7Q426.9 74.7 424.3 72.6Q421.8 70.5 421.8 67.1ZM475.9 67.9L471.3 77.7L458.3 48Q457.6 46.3 456.8 45.5Q455.9 44.7 454.7 44.4Q454.2 44.3 453.9 44Q453.8 43.8 453.8 43.5Q453.8 43.1 454.1 42.8Q454.3 42.6 454.8 42.6L470.3 42.6Q470.8 42.6 471.2 42.8Q471.4 43.1 471.4 43.5Q471.4 43.9 471.3 44.1Q471.1 44.3 470.6 44.4L468.8 44.7Q467.6 44.9 467.3 45.7Q467.1 46.4 467.8 48.1L475.9 67.9ZM469.7 80.3L472.3 73.6L473.2 71.8L482.2 48.8Q482.9 46.9 482.7 46Q482.3 45.1 480.8 44.8L479.3 44.5Q478.8 44.3 478.6 44.1Q478.3 43.9 478.3 43.5Q478.3 43.1 478.7 42.8Q478.9 42.6 479.4 42.6L488.6 42.6Q489.1 42.6 489.3 42.8Q489.7 43.1 489.7 43.5Q489.7 43.8 489.4 44Q489.3 44.3 488.8 44.4Q487.2 44.8 486.3 45.7Q485.3 46.5 484.7 48.4L472.1 80.1Q470.6 84 469.3 86.3Q467.9 88.6 466.3 89.6Q464.8 90.5 462.3 90.5Q459.1 90.5 457.1 88.7Q455.1 86.8 455.1 84.1Q455.1 82.1 456.1 81Q456.9 79.9 458.6 79.9Q460.1 79.9 460.9 80.8Q461.8 81.7 462.3 83.3L462.8 84.7Q462.9 85.8 463.6 86.5Q464.2 87.2 464.9 87.2Q465.7 87.2 466.3 86.6Q467.1 85.9 467.8 84.4Q468.7 82.8 469.7 80.3Z"/>
</svg>
